<svg width="198" height="75" viewBox="0 0 198 75" fill="none" xmlns="http://www.w3.org/2000/svg">
<rect x="19" y="7" width="159" height="55" rx="27.5" fill="#00BEC1"/>
<path d="M60.4254 47L71.8014 19.892H72.0174L83.3574 47H79.3614L70.8654 25.364L73.3494 23.744L63.8454 47H60.4254ZM67.0854 37.136H76.7694L77.9214 40.16H66.0774L67.0854 37.136ZM88.2596 47V20.972H95.3516C97.9196 20.972 100.104 21.368 101.904 22.16C103.728 22.952 105.192 23.996 106.296 25.292C107.4 26.588 108.204 28.028 108.708 29.612C109.236 31.172 109.5 32.732 109.5 34.292C109.5 36.26 109.152 38.024 108.456 39.584C107.784 41.144 106.848 42.476 105.648 43.58C104.448 44.684 103.068 45.536 101.508 46.136C99.9716 46.712 98.3396 47 96.6116 47H88.2596ZM91.7516 43.652H95.9276C97.3676 43.652 98.6876 43.436 99.8876 43.004C101.112 42.572 102.168 41.948 103.056 41.132C103.968 40.316 104.676 39.32 105.18 38.144C105.684 36.944 105.936 35.588 105.936 34.076C105.936 32.468 105.672 31.064 105.144 29.864C104.616 28.64 103.896 27.62 102.984 26.804C102.072 25.988 101.04 25.376 99.8876 24.968C98.7356 24.536 97.5236 24.32 96.2516 24.32H91.7516V43.652ZM115.365 47V20.972H122.457C125.025 20.972 127.209 21.368 129.009 22.16C130.833 22.952 132.297 23.996 133.401 25.292C134.505 26.588 135.309 28.028 135.813 29.612C136.341 31.172 136.605 32.732 136.605 34.292C136.605 36.26 136.257 38.024 135.561 39.584C134.889 41.144 133.953 42.476 132.753 43.58C131.553 44.684 130.173 45.536 128.613 46.136C127.077 46.712 125.445 47 123.717 47H115.365ZM118.857 43.652H123.033C124.473 43.652 125.793 43.436 126.993 43.004C128.217 42.572 129.273 41.948 130.161 41.132C131.073 40.316 131.781 39.32 132.285 38.144C132.789 36.944 133.041 35.588 133.041 34.076C133.041 32.468 132.777 31.064 132.249 29.864C131.721 28.64 131.001 27.62 130.089 26.804C129.177 25.988 128.145 25.376 126.993 24.968C125.841 24.536 124.629 24.32 123.357 24.32H118.857V43.652Z" fill="white"/>
</svg>
