<svg width="240" height="75" viewBox="0 0 240 75" fill="none" xmlns="http://www.w3.org/2000/svg">
<rect x="23.0303" y="7" width="192.727" height="55" rx="27.5" fill="#E8483A"/>
<path d="M67.2389 45.056C66.8069 45.344 66.2189 45.668 65.4749 46.028C64.7309 46.388 63.8549 46.688 62.8469 46.928C61.8629 47.168 60.7829 47.288 59.6069 47.288C57.5909 47.264 55.7669 46.904 54.1349 46.208C52.5269 45.512 51.1589 44.564 50.0309 43.364C48.9029 42.164 48.0269 40.784 47.4029 39.224C46.8029 37.64 46.5029 35.96 46.5029 34.184C46.5029 32.24 46.8149 30.452 47.4389 28.82C48.0869 27.164 48.9869 25.736 50.1389 24.536C51.2909 23.312 52.6469 22.364 54.2069 21.692C55.7909 21.02 57.5189 20.684 59.3909 20.684C60.9509 20.684 62.3669 20.9 63.6389 21.332C64.9109 21.74 66.0029 22.232 66.9149 22.808L65.5109 26.048C64.7909 25.568 63.9149 25.112 62.8829 24.68C61.8749 24.248 60.7469 24.032 59.4989 24.032C58.2269 24.032 57.0269 24.284 55.8989 24.788C54.7709 25.292 53.7749 26 52.9109 26.912C52.0469 27.824 51.3629 28.892 50.8589 30.116C50.3789 31.316 50.1389 32.612 50.1389 34.004C50.1389 35.42 50.3549 36.74 50.7869 37.964C51.2429 39.164 51.8789 40.208 52.6949 41.096C53.5349 41.984 54.5429 42.68 55.7189 43.184C56.8949 43.688 58.2149 43.94 59.6789 43.94C60.9989 43.94 62.1749 43.736 63.2069 43.328C64.2389 42.92 65.0909 42.464 65.7629 41.96L67.2389 45.056ZM70.527 47L81.903 19.892H82.119L93.459 47H89.463L80.967 25.364L83.451 23.744L73.947 47H70.527ZM77.187 37.136H86.871L88.023 40.16H76.179L77.187 37.136ZM120.897 47.828L100.773 27.416L101.781 27.668L101.853 47H98.3612V20.18H98.5412L118.449 40.664L117.621 40.484L117.549 20.972H121.005V47.828H120.897ZM147.606 45.056C147.174 45.344 146.586 45.668 145.842 46.028C145.098 46.388 144.222 46.688 143.214 46.928C142.23 47.168 141.15 47.288 139.974 47.288C137.958 47.264 136.134 46.904 134.502 46.208C132.894 45.512 131.526 44.564 130.398 43.364C129.27 42.164 128.394 40.784 127.77 39.224C127.17 37.64 126.87 35.96 126.87 34.184C126.87 32.24 127.182 30.452 127.806 28.82C128.454 27.164 129.354 25.736 130.506 24.536C131.658 23.312 133.014 22.364 134.574 21.692C136.158 21.02 137.886 20.684 139.758 20.684C141.318 20.684 142.734 20.9 144.006 21.332C145.278 21.74 146.37 22.232 147.282 22.808L145.878 26.048C145.158 25.568 144.282 25.112 143.25 24.68C142.242 24.248 141.114 24.032 139.866 24.032C138.594 24.032 137.394 24.284 136.266 24.788C135.138 25.292 134.142 26 133.278 26.912C132.414 27.824 131.73 28.892 131.226 30.116C130.746 31.316 130.506 32.612 130.506 34.004C130.506 35.42 130.722 36.74 131.154 37.964C131.61 39.164 132.246 40.208 133.062 41.096C133.902 41.984 134.91 42.68 136.086 43.184C137.262 43.688 138.582 43.94 140.046 43.94C141.366 43.94 142.542 43.736 143.574 43.328C144.606 42.92 145.458 42.464 146.13 41.96L147.606 45.056ZM153.486 20.972H170.406V24.32H156.978V32.24H168.966V35.588H156.978V43.652H170.91V47H153.486V20.972ZM176.971 20.972H180.463V43.652H193.675V47H176.971V20.972Z" fill="white"/>
</svg>
