<svg width="240" height="75" viewBox="0 0 240 75" fill="none" xmlns="http://www.w3.org/2000/svg">
<rect x="23.0303" y="7" width="192.727" height="55" rx="27.5" fill="#E8483A"/>
<path d="M53.3085 47V20.972H60.4005C62.9685 20.972 65.1525 21.368 66.9525 22.16C68.7765 22.952 70.2405 23.996 71.3445 25.292C72.4485 26.588 73.2525 28.028 73.7565 29.612C74.2845 31.172 74.5485 32.732 74.5485 34.292C74.5485 36.26 74.2005 38.024 73.5045 39.584C72.8325 41.144 71.8965 42.476 70.6965 43.58C69.4965 44.684 68.1165 45.536 66.5565 46.136C65.0205 46.712 63.3885 47 61.6605 47H53.3085ZM56.8005 43.652H60.9765C62.4165 43.652 63.7365 43.436 64.9365 43.004C66.1605 42.572 67.2165 41.948 68.1045 41.132C69.0165 40.316 69.7245 39.32 70.2285 38.144C70.7325 36.944 70.9845 35.588 70.9845 34.076C70.9845 32.468 70.7205 31.064 70.1925 29.864C69.6645 28.64 68.9445 27.62 68.0325 26.804C67.1205 25.988 66.0885 25.376 64.9365 24.968C63.7845 24.536 62.5725 24.32 61.3005 24.32H56.8005V43.652ZM80.4139 20.972H97.3339V24.32H83.9059V32.24H95.8939V35.588H83.9059V43.652H97.8379V47H80.4139V20.972ZM103.898 20.972H107.39V43.652H120.602V47H103.898V20.972ZM126.293 20.972H143.213V24.32H129.785V32.24H141.773V35.588H129.785V43.652H143.717V47H126.293V20.972ZM147.869 20.972H165.149V24.32H158.165V47H154.673V24.32H147.869V20.972ZM170.695 20.972H187.615V24.32H174.187V32.24H186.175V35.588H174.187V43.652H188.119V47H170.695V20.972Z" fill="white"/>
</svg>
