<svg width="198" height="75" viewBox="0 0 198 75" fill="none" xmlns="http://www.w3.org/2000/svg">
<rect x="19" y="7" width="159" height="55" rx="27.5" fill="#00BEC1"/>
<path d="M70.1709 25.616C69.2829 25.16 68.3109 24.764 67.2549 24.428C66.1989 24.092 65.1669 23.924 64.1589 23.924C62.7669 23.924 61.6509 24.248 60.8109 24.896C59.9949 25.544 59.5869 26.408 59.5869 27.488C59.5869 28.304 59.8509 29 60.3789 29.576C60.9069 30.128 61.6029 30.608 62.4669 31.016C63.3309 31.424 64.2309 31.808 65.1669 32.168C65.9829 32.48 66.7869 32.828 67.5789 33.212C68.3709 33.596 69.0789 34.076 69.7029 34.652C70.3509 35.228 70.8549 35.936 71.2149 36.776C71.5989 37.616 71.7909 38.66 71.7909 39.908C71.7909 41.276 71.4429 42.524 70.7469 43.652C70.0749 44.78 69.1029 45.668 67.8309 46.316C66.5589 46.964 65.0469 47.288 63.2949 47.288C62.1429 47.288 61.0389 47.156 59.9829 46.892C58.9509 46.628 57.9909 46.292 57.1029 45.884C56.2149 45.452 55.4229 45.008 54.7269 44.552L56.2749 41.816C56.8509 42.224 57.5109 42.62 58.2549 43.004C58.9989 43.364 59.7789 43.664 60.5949 43.904C61.4109 44.12 62.2029 44.228 62.9709 44.228C63.7869 44.228 64.5909 44.084 65.3829 43.796C66.1989 43.484 66.8709 43.016 67.3989 42.392C67.9269 41.768 68.1909 40.94 68.1909 39.908C68.1909 39.02 67.9509 38.288 67.4709 37.712C67.0149 37.112 66.4029 36.608 65.6349 36.2C64.8669 35.768 64.0509 35.384 63.1869 35.048C62.3709 34.736 61.5429 34.4 60.7029 34.04C59.8629 33.656 59.0829 33.2 58.3629 32.672C57.6429 32.12 57.0669 31.448 56.6349 30.656C56.2029 29.864 55.9869 28.904 55.9869 27.776C55.9869 26.408 56.3109 25.22 56.9589 24.212C57.6309 23.18 58.5429 22.376 59.6949 21.8C60.8469 21.2 62.1669 20.876 63.6549 20.828C65.3349 20.828 66.8109 21.032 68.0829 21.44C69.3789 21.848 70.5189 22.352 71.5029 22.952L70.1709 25.616ZM75.068 47L86.444 19.892H86.66L98 47H94.004L85.508 25.364L87.992 23.744L78.488 47H75.068ZM81.728 37.136H91.412L92.564 40.16H80.72L81.728 37.136ZM101.294 20.972L109.862 42.5L107.882 42.104L116.018 20.972H120.086L108.602 48.188L97.1537 20.972H101.294ZM125.297 20.972H142.217V24.32H128.789V32.24H140.777V35.588H128.789V43.652H142.721V47H125.297V20.972Z" fill="white"/>
</svg>
